<mxfile host="app.diagrams.net" modified="2021-02-22T22:45:41.936Z" agent="5.0 (X11)" etag="X0NqR_sE-MXOjVaNYeYd" version="14.4.2" type="github">
  <diagram id="JDS2i1ZdFR2mW-wgqxo8" name="Page-1">
    <mxGraphModel dx="1550" dy="392" grid="1" gridSize="10" guides="1" tooltips="1" connect="1" arrows="1" fold="1" page="1" pageScale="1" pageWidth="827" pageHeight="1169" math="0" shadow="0">
      <root>
        <mxCell id="0" />
        <mxCell id="1" parent="0" />
        <mxCell id="rap4i_mbf71e913wkgwE-12" style="edgeStyle=orthogonalEdgeStyle;rounded=0;orthogonalLoop=1;jettySize=auto;html=1;exitX=1;exitY=0;exitDx=0;exitDy=0;" edge="1" parent="1" source="rap4i_mbf71e913wkgwE-5" target="rap4i_mbf71e913wkgwE-13">
          <mxGeometry relative="1" as="geometry">
            <mxPoint x="510" y="480" as="targetPoint" />
          </mxGeometry>
        </mxCell>
        <mxCell id="rap4i_mbf71e913wkgwE-21" style="edgeStyle=orthogonalEdgeStyle;rounded=0;orthogonalLoop=1;jettySize=auto;html=1;exitX=0.5;exitY=1;exitDx=0;exitDy=0;entryX=0.5;entryY=0;entryDx=0;entryDy=0;" edge="1" parent="1" source="rap4i_mbf71e913wkgwE-5" target="rap4i_mbf71e913wkgwE-16">
          <mxGeometry relative="1" as="geometry" />
        </mxCell>
        <mxCell id="rap4i_mbf71e913wkgwE-23" style="edgeStyle=orthogonalEdgeStyle;rounded=0;orthogonalLoop=1;jettySize=auto;html=1;exitX=0;exitY=0.25;exitDx=0;exitDy=0;entryX=1;entryY=0.5;entryDx=0;entryDy=0;" edge="1" parent="1" source="rap4i_mbf71e913wkgwE-5" target="rap4i_mbf71e913wkgwE-19">
          <mxGeometry relative="1" as="geometry" />
        </mxCell>
        <mxCell id="rap4i_mbf71e913wkgwE-5" value="PUC Minas" style="rounded=0;whiteSpace=wrap;html=1;" vertex="1" parent="1">
          <mxGeometry x="350" y="520" width="120" height="60" as="geometry" />
        </mxCell>
        <mxCell id="rap4i_mbf71e913wkgwE-34" style="edgeStyle=orthogonalEdgeStyle;rounded=0;orthogonalLoop=1;jettySize=auto;html=1;exitX=0.25;exitY=0;exitDx=0;exitDy=0;" edge="1" parent="1" source="rap4i_mbf71e913wkgwE-13">
          <mxGeometry relative="1" as="geometry">
            <mxPoint x="480" y="400" as="targetPoint" />
          </mxGeometry>
        </mxCell>
        <mxCell id="rap4i_mbf71e913wkgwE-45" style="edgeStyle=orthogonalEdgeStyle;rounded=0;orthogonalLoop=1;jettySize=auto;html=1;exitX=1;exitY=1;exitDx=0;exitDy=0;entryX=0.25;entryY=0;entryDx=0;entryDy=0;" edge="1" parent="1" source="rap4i_mbf71e913wkgwE-13" target="rap4i_mbf71e913wkgwE-35">
          <mxGeometry relative="1" as="geometry" />
        </mxCell>
        <mxCell id="rap4i_mbf71e913wkgwE-13" value="" style="rounded=0;whiteSpace=wrap;html=1;" vertex="1" parent="1">
          <mxGeometry x="470" y="430" width="110" height="50" as="geometry" />
        </mxCell>
        <mxCell id="rap4i_mbf71e913wkgwE-14" value="ICEI" style="rhombus;whiteSpace=wrap;html=1;" vertex="1" parent="1">
          <mxGeometry x="492.5" y="430" width="65" height="50" as="geometry" />
        </mxCell>
        <mxCell id="rap4i_mbf71e913wkgwE-46" style="edgeStyle=orthogonalEdgeStyle;rounded=0;orthogonalLoop=1;jettySize=auto;html=1;exitX=0;exitY=0.75;exitDx=0;exitDy=0;entryX=0.75;entryY=0;entryDx=0;entryDy=0;" edge="1" parent="1" source="rap4i_mbf71e913wkgwE-15" target="rap4i_mbf71e913wkgwE-31">
          <mxGeometry relative="1" as="geometry" />
        </mxCell>
        <mxCell id="rap4i_mbf71e913wkgwE-48" style="edgeStyle=orthogonalEdgeStyle;rounded=0;orthogonalLoop=1;jettySize=auto;html=1;exitX=1;exitY=0.75;exitDx=0;exitDy=0;entryX=0.25;entryY=0;entryDx=0;entryDy=0;" edge="1" parent="1" source="rap4i_mbf71e913wkgwE-15" target="rap4i_mbf71e913wkgwE-32">
          <mxGeometry relative="1" as="geometry" />
        </mxCell>
        <mxCell id="rap4i_mbf71e913wkgwE-15" value="" style="rounded=0;whiteSpace=wrap;html=1;" vertex="1" parent="1">
          <mxGeometry x="355" y="610" width="110" height="50" as="geometry" />
        </mxCell>
        <mxCell id="rap4i_mbf71e913wkgwE-16" value="ICH" style="rhombus;whiteSpace=wrap;html=1;" vertex="1" parent="1">
          <mxGeometry x="377" y="610" width="66" height="50" as="geometry" />
        </mxCell>
        <mxCell id="rap4i_mbf71e913wkgwE-24" style="edgeStyle=orthogonalEdgeStyle;rounded=0;orthogonalLoop=1;jettySize=auto;html=1;exitX=0.25;exitY=0;exitDx=0;exitDy=0;" edge="1" parent="1" source="rap4i_mbf71e913wkgwE-19" target="rap4i_mbf71e913wkgwE-25">
          <mxGeometry relative="1" as="geometry">
            <mxPoint x="170" y="480" as="targetPoint" />
          </mxGeometry>
        </mxCell>
        <mxCell id="rap4i_mbf71e913wkgwE-49" style="edgeStyle=orthogonalEdgeStyle;rounded=0;orthogonalLoop=1;jettySize=auto;html=1;exitX=0;exitY=0.75;exitDx=0;exitDy=0;" edge="1" parent="1" source="rap4i_mbf71e913wkgwE-19" target="rap4i_mbf71e913wkgwE-27">
          <mxGeometry relative="1" as="geometry" />
        </mxCell>
        <mxCell id="rap4i_mbf71e913wkgwE-19" value="" style="rounded=0;whiteSpace=wrap;html=1;" vertex="1" parent="1">
          <mxGeometry x="170" y="510" width="110" height="50" as="geometry" />
        </mxCell>
        <mxCell id="rap4i_mbf71e913wkgwE-20" value="FCA" style="rhombus;whiteSpace=wrap;html=1;" vertex="1" parent="1">
          <mxGeometry x="192.5" y="510" width="65" height="50" as="geometry" />
        </mxCell>
        <mxCell id="rap4i_mbf71e913wkgwE-41" style="edgeStyle=orthogonalEdgeStyle;rounded=0;orthogonalLoop=1;jettySize=auto;html=1;exitX=0.25;exitY=0;exitDx=0;exitDy=0;entryX=0.5;entryY=1;entryDx=0;entryDy=0;" edge="1" parent="1" source="rap4i_mbf71e913wkgwE-25" target="rap4i_mbf71e913wkgwE-37">
          <mxGeometry relative="1" as="geometry" />
        </mxCell>
        <mxCell id="rap4i_mbf71e913wkgwE-42" style="edgeStyle=orthogonalEdgeStyle;rounded=0;orthogonalLoop=1;jettySize=auto;html=1;exitX=0.5;exitY=0;exitDx=0;exitDy=0;entryX=0.5;entryY=1;entryDx=0;entryDy=0;" edge="1" parent="1" source="rap4i_mbf71e913wkgwE-25" target="rap4i_mbf71e913wkgwE-38">
          <mxGeometry relative="1" as="geometry" />
        </mxCell>
        <mxCell id="rap4i_mbf71e913wkgwE-58" style="edgeStyle=orthogonalEdgeStyle;rounded=0;orthogonalLoop=1;jettySize=auto;html=1;exitX=1;exitY=0.5;exitDx=0;exitDy=0;" edge="1" parent="1" source="rap4i_mbf71e913wkgwE-25" target="rap4i_mbf71e913wkgwE-59">
          <mxGeometry relative="1" as="geometry">
            <mxPoint x="230" y="430" as="targetPoint" />
          </mxGeometry>
        </mxCell>
        <mxCell id="rap4i_mbf71e913wkgwE-60" style="edgeStyle=orthogonalEdgeStyle;rounded=0;orthogonalLoop=1;jettySize=auto;html=1;exitX=1;exitY=1;exitDx=0;exitDy=0;" edge="1" parent="1" source="rap4i_mbf71e913wkgwE-25">
          <mxGeometry relative="1" as="geometry">
            <mxPoint x="230" y="469.66666666666674" as="targetPoint" />
          </mxGeometry>
        </mxCell>
        <mxCell id="rap4i_mbf71e913wkgwE-25" value="Cinema" style="rounded=0;whiteSpace=wrap;html=1;" vertex="1" parent="1">
          <mxGeometry x="120" y="430" width="80" height="40" as="geometry" />
        </mxCell>
        <mxCell id="rap4i_mbf71e913wkgwE-54" style="edgeStyle=orthogonalEdgeStyle;rounded=0;orthogonalLoop=1;jettySize=auto;html=1;exitX=0.25;exitY=1;exitDx=0;exitDy=0;entryX=0.5;entryY=0;entryDx=0;entryDy=0;" edge="1" parent="1" source="rap4i_mbf71e913wkgwE-27" target="rap4i_mbf71e913wkgwE-52">
          <mxGeometry relative="1" as="geometry" />
        </mxCell>
        <mxCell id="rap4i_mbf71e913wkgwE-80" style="edgeStyle=orthogonalEdgeStyle;rounded=0;orthogonalLoop=1;jettySize=auto;html=1;exitX=0.75;exitY=1;exitDx=0;exitDy=0;entryX=0.5;entryY=0;entryDx=0;entryDy=0;" edge="1" parent="1" source="rap4i_mbf71e913wkgwE-27" target="rap4i_mbf71e913wkgwE-55">
          <mxGeometry relative="1" as="geometry" />
        </mxCell>
        <mxCell id="rap4i_mbf71e913wkgwE-115" style="edgeStyle=orthogonalEdgeStyle;rounded=0;orthogonalLoop=1;jettySize=auto;html=1;exitX=0.25;exitY=0;exitDx=0;exitDy=0;entryX=1;entryY=1;entryDx=0;entryDy=0;" edge="1" parent="1" source="rap4i_mbf71e913wkgwE-27" target="rap4i_mbf71e913wkgwE-107">
          <mxGeometry relative="1" as="geometry" />
        </mxCell>
        <mxCell id="rap4i_mbf71e913wkgwE-116" style="edgeStyle=orthogonalEdgeStyle;rounded=0;orthogonalLoop=1;jettySize=auto;html=1;exitX=0.75;exitY=0;exitDx=0;exitDy=0;entryX=-0.012;entryY=0.641;entryDx=0;entryDy=0;entryPerimeter=0;" edge="1" parent="1" source="rap4i_mbf71e913wkgwE-27" target="rap4i_mbf71e913wkgwE-108">
          <mxGeometry relative="1" as="geometry" />
        </mxCell>
        <mxCell id="rap4i_mbf71e913wkgwE-27" value="Relações Públicas " style="rounded=0;whiteSpace=wrap;html=1;" vertex="1" parent="1">
          <mxGeometry x="70" y="630" width="80" height="40" as="geometry" />
        </mxCell>
        <mxCell id="rap4i_mbf71e913wkgwE-102" style="edgeStyle=orthogonalEdgeStyle;rounded=0;orthogonalLoop=1;jettySize=auto;html=1;exitX=0;exitY=0.5;exitDx=0;exitDy=0;entryX=0.5;entryY=0;entryDx=0;entryDy=0;" edge="1" parent="1" source="rap4i_mbf71e913wkgwE-31" target="rap4i_mbf71e913wkgwE-99">
          <mxGeometry relative="1" as="geometry" />
        </mxCell>
        <mxCell id="rap4i_mbf71e913wkgwE-104" style="edgeStyle=orthogonalEdgeStyle;rounded=0;orthogonalLoop=1;jettySize=auto;html=1;exitX=0.5;exitY=1;exitDx=0;exitDy=0;entryX=0.5;entryY=0;entryDx=0;entryDy=0;" edge="1" parent="1" source="rap4i_mbf71e913wkgwE-31" target="rap4i_mbf71e913wkgwE-103">
          <mxGeometry relative="1" as="geometry" />
        </mxCell>
        <mxCell id="rap4i_mbf71e913wkgwE-31" value="Pedagogia " style="rounded=0;whiteSpace=wrap;html=1;" vertex="1" parent="1">
          <mxGeometry x="257.5" y="670" width="80" height="40" as="geometry" />
        </mxCell>
        <mxCell id="rap4i_mbf71e913wkgwE-83" style="edgeStyle=orthogonalEdgeStyle;rounded=0;orthogonalLoop=1;jettySize=auto;html=1;exitX=0.25;exitY=1;exitDx=0;exitDy=0;entryX=0.605;entryY=0.054;entryDx=0;entryDy=0;entryPerimeter=0;" edge="1" parent="1" source="rap4i_mbf71e913wkgwE-32">
          <mxGeometry relative="1" as="geometry">
            <mxPoint x="532.8125" y="722.1600000000001" as="targetPoint" />
          </mxGeometry>
        </mxCell>
        <mxCell id="rap4i_mbf71e913wkgwE-84" style="edgeStyle=orthogonalEdgeStyle;rounded=0;orthogonalLoop=1;jettySize=auto;html=1;exitX=0.75;exitY=1;exitDx=0;exitDy=0;entryX=0.5;entryY=0;entryDx=0;entryDy=0;" edge="1" parent="1" source="rap4i_mbf71e913wkgwE-32">
          <mxGeometry relative="1" as="geometry">
            <mxPoint x="634.25" y="710" as="targetPoint" />
          </mxGeometry>
        </mxCell>
        <mxCell id="rap4i_mbf71e913wkgwE-32" value="Letras" style="rounded=0;whiteSpace=wrap;html=1;" vertex="1" parent="1">
          <mxGeometry x="540.5" y="660" width="80" height="40" as="geometry" />
        </mxCell>
        <mxCell id="rap4i_mbf71e913wkgwE-88" style="edgeStyle=orthogonalEdgeStyle;rounded=0;orthogonalLoop=1;jettySize=auto;html=1;exitX=1;exitY=0.5;exitDx=0;exitDy=0;entryX=0;entryY=0.5;entryDx=0;entryDy=0;" edge="1" parent="1" source="rap4i_mbf71e913wkgwE-33">
          <mxGeometry relative="1" as="geometry">
            <mxPoint x="540.4999999999961" y="380" as="targetPoint" />
          </mxGeometry>
        </mxCell>
        <mxCell id="rap4i_mbf71e913wkgwE-89" value="" style="edgeStyle=orthogonalEdgeStyle;rounded=0;orthogonalLoop=1;jettySize=auto;html=1;" edge="1" parent="1" source="rap4i_mbf71e913wkgwE-33">
          <mxGeometry relative="1" as="geometry">
            <mxPoint x="445.25" y="340" as="targetPoint" />
          </mxGeometry>
        </mxCell>
        <mxCell id="rap4i_mbf71e913wkgwE-33" value="Ciência da Computação" style="rounded=0;whiteSpace=wrap;html=1;" vertex="1" parent="1">
          <mxGeometry x="443" y="360" width="80" height="40" as="geometry" />
        </mxCell>
        <mxCell id="rap4i_mbf71e913wkgwE-85" style="edgeStyle=orthogonalEdgeStyle;rounded=0;orthogonalLoop=1;jettySize=auto;html=1;exitX=1;exitY=0.5;exitDx=0;exitDy=0;entryX=0;entryY=0.5;entryDx=0;entryDy=0;" edge="1" parent="1" source="rap4i_mbf71e913wkgwE-35">
          <mxGeometry relative="1" as="geometry">
            <mxPoint x="660" y="534.9999999999999" as="targetPoint" />
          </mxGeometry>
        </mxCell>
        <mxCell id="rap4i_mbf71e913wkgwE-86" style="edgeStyle=orthogonalEdgeStyle;rounded=0;orthogonalLoop=1;jettySize=auto;html=1;exitX=0.5;exitY=1;exitDx=0;exitDy=0;entryX=0.605;entryY=0.033;entryDx=0;entryDy=0;entryPerimeter=0;" edge="1" parent="1" source="rap4i_mbf71e913wkgwE-35">
          <mxGeometry relative="1" as="geometry">
            <mxPoint x="607.8125" y="571.3199999999999" as="targetPoint" />
          </mxGeometry>
        </mxCell>
        <mxCell id="rap4i_mbf71e913wkgwE-35" value="Sistemas de Informação" style="rounded=0;whiteSpace=wrap;html=1;" vertex="1" parent="1">
          <mxGeometry x="570" y="520" width="80" height="40" as="geometry" />
        </mxCell>
        <mxCell id="rap4i_mbf71e913wkgwE-123" style="edgeStyle=orthogonalEdgeStyle;rounded=0;orthogonalLoop=1;jettySize=auto;html=1;exitX=0.5;exitY=0;exitDx=0;exitDy=0;entryX=0.5;entryY=1;entryDx=0;entryDy=0;" edge="1" parent="1" source="rap4i_mbf71e913wkgwE-37" target="rap4i_mbf71e913wkgwE-119">
          <mxGeometry relative="1" as="geometry" />
        </mxCell>
        <mxCell id="rap4i_mbf71e913wkgwE-124" style="edgeStyle=orthogonalEdgeStyle;rounded=0;orthogonalLoop=1;jettySize=auto;html=1;exitX=1;exitY=0;exitDx=0;exitDy=0;entryX=0.253;entryY=1.033;entryDx=0;entryDy=0;entryPerimeter=0;" edge="1" parent="1" source="rap4i_mbf71e913wkgwE-37" target="rap4i_mbf71e913wkgwE-120">
          <mxGeometry relative="1" as="geometry" />
        </mxCell>
        <mxCell id="rap4i_mbf71e913wkgwE-37" value="Produção" style="rhombus;whiteSpace=wrap;html=1;" vertex="1" parent="1">
          <mxGeometry x="40" y="330" width="70" height="70" as="geometry" />
        </mxCell>
        <mxCell id="rap4i_mbf71e913wkgwE-125" style="edgeStyle=orthogonalEdgeStyle;rounded=0;orthogonalLoop=1;jettySize=auto;html=1;exitX=0;exitY=0;exitDx=0;exitDy=0;entryX=0.6;entryY=1.075;entryDx=0;entryDy=0;entryPerimeter=0;" edge="1" parent="1" source="rap4i_mbf71e913wkgwE-38" target="rap4i_mbf71e913wkgwE-121">
          <mxGeometry relative="1" as="geometry" />
        </mxCell>
        <mxCell id="rap4i_mbf71e913wkgwE-126" style="edgeStyle=orthogonalEdgeStyle;rounded=0;orthogonalLoop=1;jettySize=auto;html=1;exitX=1;exitY=0;exitDx=0;exitDy=0;entryX=0.307;entryY=0.95;entryDx=0;entryDy=0;entryPerimeter=0;" edge="1" parent="1" source="rap4i_mbf71e913wkgwE-38" target="rap4i_mbf71e913wkgwE-122">
          <mxGeometry relative="1" as="geometry" />
        </mxCell>
        <mxCell id="rap4i_mbf71e913wkgwE-38" value="Artes" style="rhombus;whiteSpace=wrap;html=1;" vertex="1" parent="1">
          <mxGeometry x="120" y="330" width="70" height="70" as="geometry" />
        </mxCell>
        <mxCell id="rap4i_mbf71e913wkgwE-52" value="Negócios" style="rhombus;whiteSpace=wrap;html=1;" vertex="1" parent="1">
          <mxGeometry x="20" y="720" width="70" height="70" as="geometry" />
        </mxCell>
        <mxCell id="rap4i_mbf71e913wkgwE-55" value="Publicidade" style="rhombus;whiteSpace=wrap;html=1;" vertex="1" parent="1">
          <mxGeometry x="110" y="720" width="70" height="70" as="geometry" />
        </mxCell>
        <mxCell id="rap4i_mbf71e913wkgwE-69" style="edgeStyle=orthogonalEdgeStyle;rounded=0;orthogonalLoop=1;jettySize=auto;html=1;exitX=0.5;exitY=0;exitDx=0;exitDy=0;entryX=0.5;entryY=1;entryDx=0;entryDy=0;" edge="1" parent="1" source="rap4i_mbf71e913wkgwE-59" target="rap4i_mbf71e913wkgwE-67">
          <mxGeometry relative="1" as="geometry" />
        </mxCell>
        <mxCell id="rap4i_mbf71e913wkgwE-70" style="edgeStyle=orthogonalEdgeStyle;rounded=0;orthogonalLoop=1;jettySize=auto;html=1;exitX=1;exitY=0;exitDx=0;exitDy=0;entryX=0.325;entryY=1.033;entryDx=0;entryDy=0;entryPerimeter=0;" edge="1" parent="1" source="rap4i_mbf71e913wkgwE-59" target="rap4i_mbf71e913wkgwE-68">
          <mxGeometry relative="1" as="geometry" />
        </mxCell>
        <mxCell id="rap4i_mbf71e913wkgwE-59" value="Professores" style="ellipse;whiteSpace=wrap;html=1;" vertex="1" parent="1">
          <mxGeometry x="217.5" y="390" width="62.5" height="40" as="geometry" />
        </mxCell>
        <mxCell id="rap4i_mbf71e913wkgwE-65" style="edgeStyle=orthogonalEdgeStyle;rounded=0;orthogonalLoop=1;jettySize=auto;html=1;exitX=1;exitY=0;exitDx=0;exitDy=0;entryX=0;entryY=0.5;entryDx=0;entryDy=0;" edge="1" parent="1" source="rap4i_mbf71e913wkgwE-62" target="rap4i_mbf71e913wkgwE-63">
          <mxGeometry relative="1" as="geometry" />
        </mxCell>
        <mxCell id="rap4i_mbf71e913wkgwE-66" style="edgeStyle=orthogonalEdgeStyle;rounded=0;orthogonalLoop=1;jettySize=auto;html=1;exitX=1;exitY=1;exitDx=0;exitDy=0;entryX=0;entryY=0.75;entryDx=0;entryDy=0;entryPerimeter=0;" edge="1" parent="1" source="rap4i_mbf71e913wkgwE-62" target="rap4i_mbf71e913wkgwE-64">
          <mxGeometry relative="1" as="geometry" />
        </mxCell>
        <mxCell id="rap4i_mbf71e913wkgwE-62" value="Alunos " style="ellipse;whiteSpace=wrap;html=1;" vertex="1" parent="1">
          <mxGeometry x="227.5" y="450" width="62.5" height="40" as="geometry" />
        </mxCell>
        <mxCell id="rap4i_mbf71e913wkgwE-63" value="Nome" style="ellipse;whiteSpace=wrap;html=1;" vertex="1" parent="1">
          <mxGeometry x="300" y="420" width="62.5" height="40" as="geometry" />
        </mxCell>
        <mxCell id="rap4i_mbf71e913wkgwE-64" value="CPF" style="ellipse;whiteSpace=wrap;html=1;" vertex="1" parent="1">
          <mxGeometry x="300" y="470" width="62.5" height="40" as="geometry" />
        </mxCell>
        <mxCell id="rap4i_mbf71e913wkgwE-67" value="Nome" style="ellipse;whiteSpace=wrap;html=1;" vertex="1" parent="1">
          <mxGeometry x="210" y="330" width="62.5" height="40" as="geometry" />
        </mxCell>
        <mxCell id="rap4i_mbf71e913wkgwE-68" value="CPF" style="ellipse;whiteSpace=wrap;html=1;" vertex="1" parent="1">
          <mxGeometry x="287.5" y="330" width="62.5" height="40" as="geometry" />
        </mxCell>
        <mxCell id="rap4i_mbf71e913wkgwE-99" value="Método de Ensino" style="rhombus;whiteSpace=wrap;html=1;" vertex="1" parent="1">
          <mxGeometry x="187.5" y="730" width="70" height="70" as="geometry" />
        </mxCell>
        <mxCell id="rap4i_mbf71e913wkgwE-103" value="Educação" style="rhombus;whiteSpace=wrap;html=1;" vertex="1" parent="1">
          <mxGeometry x="262.5" y="730" width="70" height="70" as="geometry" />
        </mxCell>
        <mxCell id="rap4i_mbf71e913wkgwE-113" style="edgeStyle=orthogonalEdgeStyle;rounded=0;orthogonalLoop=1;jettySize=auto;html=1;exitX=0.5;exitY=0;exitDx=0;exitDy=0;entryX=0.5;entryY=1;entryDx=0;entryDy=0;" edge="1" parent="1" source="rap4i_mbf71e913wkgwE-107" target="rap4i_mbf71e913wkgwE-111">
          <mxGeometry relative="1" as="geometry" />
        </mxCell>
        <mxCell id="rap4i_mbf71e913wkgwE-114" style="edgeStyle=orthogonalEdgeStyle;rounded=0;orthogonalLoop=1;jettySize=auto;html=1;exitX=1;exitY=0;exitDx=0;exitDy=0;entryX=0.399;entryY=1.021;entryDx=0;entryDy=0;entryPerimeter=0;" edge="1" parent="1" source="rap4i_mbf71e913wkgwE-107" target="rap4i_mbf71e913wkgwE-112">
          <mxGeometry relative="1" as="geometry" />
        </mxCell>
        <mxCell id="rap4i_mbf71e913wkgwE-107" value="Alunos " style="ellipse;whiteSpace=wrap;html=1;" vertex="1" parent="1">
          <mxGeometry x="27.5" y="570" width="62.5" height="40" as="geometry" />
        </mxCell>
        <mxCell id="rap4i_mbf71e913wkgwE-117" style="edgeStyle=orthogonalEdgeStyle;rounded=0;orthogonalLoop=1;jettySize=auto;html=1;exitX=1;exitY=0.5;exitDx=0;exitDy=0;entryX=0.009;entryY=0.775;entryDx=0;entryDy=0;entryPerimeter=0;" edge="1" parent="1" source="rap4i_mbf71e913wkgwE-108" target="rap4i_mbf71e913wkgwE-109">
          <mxGeometry relative="1" as="geometry" />
        </mxCell>
        <mxCell id="rap4i_mbf71e913wkgwE-118" style="edgeStyle=orthogonalEdgeStyle;rounded=0;orthogonalLoop=1;jettySize=auto;html=1;exitX=1;exitY=1;exitDx=0;exitDy=0;entryX=0;entryY=0.25;entryDx=0;entryDy=0;entryPerimeter=0;" edge="1" parent="1" source="rap4i_mbf71e913wkgwE-108" target="rap4i_mbf71e913wkgwE-110">
          <mxGeometry relative="1" as="geometry" />
        </mxCell>
        <mxCell id="rap4i_mbf71e913wkgwE-108" value="Professores" style="ellipse;whiteSpace=wrap;html=1;" vertex="1" parent="1">
          <mxGeometry x="137.5" y="580" width="62.5" height="40" as="geometry" />
        </mxCell>
        <mxCell id="rap4i_mbf71e913wkgwE-109" value="Nome" style="ellipse;whiteSpace=wrap;html=1;" vertex="1" parent="1">
          <mxGeometry x="210" y="565" width="62.5" height="40" as="geometry" />
        </mxCell>
        <mxCell id="rap4i_mbf71e913wkgwE-110" value="CPF" style="ellipse;whiteSpace=wrap;html=1;" vertex="1" parent="1">
          <mxGeometry x="210" y="620" width="62.5" height="40" as="geometry" />
        </mxCell>
        <mxCell id="rap4i_mbf71e913wkgwE-111" value="Nome" style="ellipse;whiteSpace=wrap;html=1;" vertex="1" parent="1">
          <mxGeometry x="-10" y="525" width="62.5" height="40" as="geometry" />
        </mxCell>
        <mxCell id="rap4i_mbf71e913wkgwE-112" value="CPF" style="ellipse;whiteSpace=wrap;html=1;" vertex="1" parent="1">
          <mxGeometry x="52.5" y="500" width="62.5" height="40" as="geometry" />
        </mxCell>
        <mxCell id="rap4i_mbf71e913wkgwE-119" value="Nome" style="ellipse;whiteSpace=wrap;html=1;" vertex="1" parent="1">
          <mxGeometry y="270" width="62.5" height="40" as="geometry" />
        </mxCell>
        <mxCell id="rap4i_mbf71e913wkgwE-120" value="Carga Horária" style="ellipse;whiteSpace=wrap;html=1;" vertex="1" parent="1">
          <mxGeometry x="62.5" y="240" width="62.5" height="40" as="geometry" />
        </mxCell>
        <mxCell id="rap4i_mbf71e913wkgwE-121" value="Nome" style="ellipse;whiteSpace=wrap;html=1;" vertex="1" parent="1">
          <mxGeometry x="90" y="290" width="62.5" height="40" as="geometry" />
        </mxCell>
        <mxCell id="rap4i_mbf71e913wkgwE-122" value="Carga Horária" style="ellipse;whiteSpace=wrap;html=1;" vertex="1" parent="1">
          <mxGeometry x="165" y="280" width="62.5" height="40" as="geometry" />
        </mxCell>
      </root>
    </mxGraphModel>
  </diagram>
</mxfile>
